<svg width="380" height="1270" viewBox="0 0 380 1270" fill="none" xmlns="http://www.w3.org/2000/svg">
<path d="M1333.6 1268.82C1254.96 1271.79 1177.32 1248.89 1115.73 1209.7C1054.15 1170.5 1008.66 1115.03 994.248 1052.9C984.965 1012.89 986.839 970.585 984.501 929.397C982.166 888.25 975.621 848.291 949.417 813.237C921.322 775.651 875.701 751.635 823.694 738.624C771.681 725.611 713.229 723.591 659.393 730.039C605.571 736.482 553.498 749.344 501.512 762.475C449.517 775.609 397.612 789.01 344.078 796.55C290.561 804.086 232.383 804.045 179.73 793.227C127.072 782.408 79.9859 760.821 48.5914 725.304C-15.3275 652.979 9.56308 552.528 52.2127 470.338C62.8722 449.797 74.5404 429.291 85.9969 408.68C97.4509 388.073 108.69 367.366 118.48 346.442C138.057 304.597 151.853 261.847 149.96 217.229C146.367 132.509 84.221 54.4569 1.71665 1.89777L1498.67 0.499978L1499.85 1268.81L1333.62 1268.82L1333.6 1268.82Z" fill="#6470DD" stroke="black"/>
</svg>
