<svg width="928" height="2134" viewBox="0 0 928 2134" fill="none" xmlns="http://www.w3.org/2000/svg">
<path d="M1060.33 0.4895C963.959 -6.80571 880.338 68.4086 850.298 160.847C820.254 253.273 834.514 358.325 862.752 455.767C890.978 553.197 863.298 443.141 889.221 541.104C889.221 643.927 900.157 541.104 874.657 674.442C793.712 758.061 576.139 545.491 480.881 599.232C385.623 652.972 67.4399 583.884 3.84326 674.442C-48.4495 748.896 449.166 1261.31 509.846 1315.77C600.031 1432.99 494.157 1667.93 509.846 1763.93C525.536 1859.93 687.998 2060.57 762.731 2101.38C837.468 2142.17 911.917 2197.27 945.738 2277.2L2046.94 1595.73L1060.33 0.4895Z" fill="#D89D8D"/>
</svg>
