<svg width="616" height="3101" viewBox="0 0 616 3101" fill="none" xmlns="http://www.w3.org/2000/svg">
<path d="M278.5 237.5C306.9 5.89999 401.5 28.3333 518 0.5L551.5 -230L-468 -123.5L-383 7486C-295.833 7527 -118.1 7584.4 -104.5 7486C-87.5 7363 174.5 7098.5 303.5 6961C432.5 6823.5 489 6738.5 360 6446.5C231 6154.5 -79.5002 6434.5 -152.5 6113.5C-225.5 5792.5 499.5 6095 605.5 5703C711.5 5311 -96.5002 5528 -7.00024 4953.5C82.4998 4379 370 4305.5 551.5 4014C733 3722.5 86.9996 3091.5 9.99966 2872.5C-67.0003 2653.5 -40.0004 2352 122.5 2168.5C285 1985 341 2079 439 1756.5C537 1434 121 1228.5 143.5 1016C161.258 848.289 270.569 959.101 317 841.5C335.5 779.5 297.659 730.854 317 682.5C429 402.5 243 527 278.5 237.5Z" fill="#A9D8B2" stroke="black"/>
</svg>
